<svg width="195" height="134" viewBox="0 0 195 134" fill="none" xmlns="http://www.w3.org/2000/svg">
<!--
    © 2025 Team SWS. All rights reserved.
    No reproduction or modification without consent.
    This code may be useful: 934
-->
<path fill-rule="evenodd" clip-rule="evenodd" d="M97.1194 125.323C106.37 130.263 116.933 133.064 128.149 133.064C164.612 133.064 194.17 103.473 194.17 66.9704C194.17 30.468 164.612 0.876953 128.149 0.876953C116.933 0.876953 106.37 3.67728 97.1194 8.61737C117.94 19.7365 132.111 41.6967 132.111 66.9704C132.111 92.244 117.94 114.204 97.1194 125.323Z" fill="url(#paint0_linear_92_34)"/>
<path d="M97.1194 8.61737C87.869 3.67728 77.3059 0.876953 66.0895 0.876953C29.627 0.876953 0.0683594 30.468 0.0683594 66.9704C0.0683594 103.473 29.627 133.064 66.0895 133.064C77.306 133.064 87.869 130.263 97.1194 125.323C76.2987 114.204 62.1282 92.244 62.1282 66.9704C62.1282 41.6967 76.2986 19.7365 97.1194 8.61737Z" fill="url(#paint1_linear_92_34)"/>
<defs>
<linearGradient id="paint0_linear_92_34" x1="128.283" y1="13.8615" x2="128.283" y2="120.292" gradientUnits="userSpaceOnUse">
<stop stop-color="#F6E49B"/>
<stop offset="1" stop-color="#E88300"/>
</linearGradient>
<linearGradient id="paint1_linear_92_34" x1="194.17" y1="-7.82547" x2="189.924" y2="135.807" gradientUnits="userSpaceOnUse">
<stop stop-color="#E0BC7E"/>
<stop offset="0.528846" stop-color="#C939DF"/>
<stop offset="1" stop-color="#7C04DF"/>
</linearGradient>
</defs>
</svg>
