<svg width="96" height="85" viewBox="0 0 96 85" fill="none" xmlns="http://www.w3.org/2000/svg">
<path fill-rule="evenodd" clip-rule="evenodd" d="M82.0802 21.1084C82.0926 21.1206 82.1051 21.1327 82.1176 21.1447C82.1095 21.1368 82.1017 21.1286 82.0934 21.1209C82.089 21.1167 82.0846 21.1126 82.0802 21.1084ZM88.436 30.6676C90.1377 34.5872 93.4328 40.1214 93.5 44.4823C93.5 40.1424 90.2023 34.6317 88.436 30.6676ZM81.776 20.7971C81.6939 20.7119 81.6115 20.6276 81.5271 20.5473C81.6105 20.6301 81.6935 20.7134 81.776 20.7971ZM81.9897 21.0172C81.9953 21.0234 82.0009 21.0294 82.0067 21.0353C81.9964 21.0246 81.9866 21.0135 81.9765 21.0027C81.981 21.0075 81.9853 21.0124 81.9897 21.0172Z" fill="black"/>
<path d="M88.1013 43.2058C88.1013 56.7287 78.1106 68.3969 63.6756 73.8022C58.182 75.8593 52.0448 77.0094 45.5696 77.0094C40.0157 77.0094 34.7098 76.1657 29.8461 74.6269C29.0394 74.3717 28.2455 74.095 27.464 73.8023C13.509 68.5769 3.70763 57.4982 3.07094 44.5491C3.04903 44.1035 3.03798 43.6557 3.03798 43.2058C3.03798 34.3174 7.33748 26.2252 14.4067 20.202C16.5433 18.3816 18.9328 16.7502 21.5332 15.343C32.7372 9.27942 39.7124 3.06859 45.5696 3.06859C48.505 3.06859 51.2339 4.32992 54.878 6.50541C55.2781 6.7443 55.6844 7.00245 56.1082 7.2627C56.8698 7.73033 57.672 8.23166 58.5235 8.7639C58.5599 8.7866 58.5963 8.80937 58.6327 8.83222C58.9367 9.0226 59.2469 9.21683 59.5632 9.41594C59.6482 9.46949 59.7339 9.52313 59.8199 9.57719C60.0562 9.72559 60.2954 9.87719 60.5398 10.0286C63.0843 11.6056 66.0472 13.3963 69.6061 15.343C80.8101 21.4065 88.1013 31.631 88.1013 43.2058Z" fill="#FBF0DF"/>
<path d="M88.1013 43.2058C88.0954 40.8075 87.7683 38.421 87.1291 36.1112C83.8116 76.9848 34.4506 78.9487 15.0441 66.7235C19.5203 70.2279 24.534 72.8893 29.8461 74.6269C34.6228 76.1894 39.6407 77.005 44.7258 77.0151C45.0069 77.0157 45.2882 77.0138 45.5696 77.0094C52.0397 77.0094 58.1801 75.8645 63.6756 73.8022C78.1005 68.3891 88.1013 56.707 88.1013 43.2058Z" fill="#F6DECE"/>
<path d="M29.201 13.0968C34.6329 9.80722 41.8511 3.63321 48.9479 3.62094C47.8561 3.26449 46.7169 3.07824 45.5696 3.06859C42.6289 3.06859 39.4937 4.60289 35.5443 6.91047C34.5428 7.50131 33.5215 8.13407 32.4542 8.79728L32.4442 8.80348C32.3765 8.84555 32.3086 8.88772 32.2406 8.93C31.9119 9.13428 31.5793 9.34095 31.2425 9.54946C28.4111 11.317 25.1666 13.3177 21.521 15.3184C18.9024 16.7493 16.5222 18.3902 14.4067 20.202C7.17642 26.3945 3.03798 34.5834 3.03798 43.2058C3.03798 43.6968 3.03798 44.1877 3.03798 44.6664C3.04895 44.6273 3.05994 44.5881 3.07094 44.5491C10.4419 18.381 23.7893 16.3814 29.201 13.0968Z" fill="#FFFEFC"/>
<path fill-rule="evenodd" clip-rule="evenodd" d="M42.0699 6.17401C42.0869 9.07226 41.4844 11.9401 40.3037 14.5816C39.123 17.2232 37.3918 19.5763 35.2284 21.4801C34.8881 21.787 35.1554 22.3762 35.5929 22.2043C39.6881 20.5964 45.2172 15.7848 42.8841 6.07581C42.7868 5.52347 42.0699 5.67076 42.0699 6.17401ZM44.8284 6.17401C46.3152 8.62449 47.2599 11.3708 47.5976 14.2246C47.9353 17.0784 47.658 19.9722 46.7848 22.7076C46.639 23.1372 47.1615 23.5054 47.4532 23.1495C50.1144 19.7126 52.4354 12.8881 45.4846 5.52347C45.1322 5.20433 44.5853 5.69531 44.8284 6.12491V6.17401ZM48.1823 5.96534C50.5108 7.63043 52.4586 9.7805 53.8946 12.2706C55.3305 14.7606 56.2211 17.5328 56.5063 20.4C56.494 20.5033 56.5216 20.6075 56.5832 20.6908C56.6449 20.7742 56.736 20.8304 56.8376 20.8477C56.9392 20.8651 57.0435 20.8423 57.1288 20.7841C57.2142 20.7259 57.2742 20.6367 57.2962 20.535C58.4142 16.2513 57.7823 8.94801 48.5833 5.15523C48.0972 4.95884 47.7813 5.62166 48.1823 5.91625V5.96534ZM25.7499 18.7307C28.5196 17.8949 31.084 16.4792 33.2762 14.5759C35.4683 12.6725 37.239 10.3242 38.4729 7.68375C38.6916 7.24188 39.3843 7.41372 39.2749 7.90469C37.1727 17.7242 30.1367 19.774 25.762 19.504C25.3003 19.5162 25.3124 18.8657 25.7499 18.7307Z" fill="#CBCBCB"/>
<path fill-rule="evenodd" clip-rule="evenodd" d="M93.5 44.4823C93.5 40.1424 90.2023 34.6317 88.436 30.6676C86.9495 27.3315 84.8818 24.1811 82.285 21.3253C82.2433 21.2811 82.2015 21.2369 82.1595 21.1929C82.1503 21.1832 82.1439 21.1707 82.1347 21.161C82.129 21.1556 82.1233 21.1502 82.1176 21.1447C82.1051 21.1327 82.0926 21.1206 82.0802 21.1084C82.0715 21.0994 82.0621 21.0911 82.0535 21.0821C82.0385 21.0659 82.0217 21.0514 82.0067 21.0353L81.965 20.9905C81.9346 20.9594 81.9044 20.9279 81.8739 20.8968C81.871 20.8939 81.8681 20.8911 81.8653 20.8882C81.854 20.8767 81.8421 20.8656 81.8308 20.8541C81.8235 20.8466 81.8161 20.8387 81.8089 20.8312L81.8308 20.8541C81.8421 20.8656 81.854 20.8767 81.8653 20.8882C81.8681 20.8911 81.871 20.8939 81.8739 20.8968C81.9044 20.9279 81.9346 20.9594 81.965 20.9905C81.9793 21.0051 81.9924 21.0208 82.0067 21.0353C82.0217 21.0514 82.0385 21.0659 82.0535 21.0821C82.0621 21.0911 82.0715 21.0994 82.0802 21.1084C82.0919 21.1211 82.1059 21.1319 82.1176 21.1447C82.1233 21.1502 82.129 21.1556 82.1347 21.161C82.1439 21.1707 82.1503 21.1832 82.1595 21.1929C82.2007 21.2377 82.2441 21.2804 82.285 21.3253C84.8818 24.1811 86.9495 27.3315 88.436 30.6676C90.1377 34.5872 93.4328 40.1214 93.5 44.4823ZM81.776 20.7971C81.6939 20.7119 81.6115 20.6276 81.5271 20.5473C81.6105 20.6301 81.6935 20.7134 81.776 20.7971ZM82.0802 21.1084C82.0913 21.1193 82.1049 21.1325 82.1176 21.1447C82.1095 21.1368 82.1017 21.1286 82.0934 21.1209C82.0906 21.1182 82.083 21.111 82.0802 21.1084ZM59.8319 9.58468C59.8279 9.58218 59.8239 9.57968 59.8199 9.57719C59.7339 9.52313 59.6482 9.46949 59.5632 9.41594M14.4067 20.202C7.17642 26.3945 3.03798 34.5834 3.03798 43.2058C3.03798 34.3174 7.33748 26.2252 14.4067 20.202ZM3.07094 44.5491C3.04903 44.1035 3.03798 43.6557 3.03798 43.2058V44.6664L3.07094 44.5491ZM3.07094 44.5491C3.70934 57.4774 13.5212 68.5656 27.464 73.8023C13.509 68.5769 3.70763 57.4982 3.07094 44.5491ZM29.8461 74.6269C34.4651 76.0932 39.4806 76.9335 44.7258 77.0151C39.6407 77.005 34.6228 76.1894 29.8461 74.6269Z" fill="black"/>
<path d="M54.1367 52.1661C53.5908 54.4245 52.3482 56.4491 50.5884 57.9473C49.2672 59.2409 47.5568 60.0529 45.7276 60.2549C43.8435 60.0849 42.0731 59.2709 40.7089 57.9473C38.967 56.442 37.7419 54.4181 37.2091 52.1661C37.1915 52.0324 37.2043 51.8964 37.2468 51.7685C37.2892 51.6406 37.36 51.5242 37.4539 51.4282C37.5477 51.3322 37.662 51.2592 37.7881 51.2148C37.9142 51.1704 38.0487 51.1557 38.1813 51.1718H53.1767C53.3083 51.1577 53.4414 51.1739 53.566 51.2192C53.6905 51.2646 53.8032 51.3379 53.8956 51.4336C53.9881 51.5293 54.0578 51.645 54.0995 51.7718C54.1413 51.8987 54.154 52.0335 54.1367 52.1661Z" fill="#B71422"/>
<path d="M40.7089 58.0455C42.0703 59.3699 43.8343 60.1916 45.7154 60.3776C47.5923 60.1889 49.3516 59.3674 50.7099 58.0455C51.1444 57.6364 51.5504 57.1976 51.9251 56.7321C51.1765 55.8743 50.2621 55.1803 49.2381 54.6926C48.2141 54.205 47.1021 53.9342 45.9706 53.8967C44.76 53.9257 43.5744 54.2514 42.5159 54.8458C41.4575 55.4402 40.558 56.2856 39.8947 57.309C40.1742 57.5668 40.4172 57.8123 40.7089 58.0455Z" fill="#FF6164"/>
<path d="M40.9033 57.0758C41.5058 56.2892 42.2769 55.6508 43.1588 55.2086C44.0407 54.7664 45.0104 54.5319 45.9949 54.5227C47.8148 54.577 49.5487 55.3169 50.8557 56.5971C51.1352 56.2903 51.4025 55.9711 51.6577 55.652C50.1118 54.1648 48.0687 53.3192 45.9342 53.283C44.7934 53.293 43.669 53.5579 42.6416 54.0587C41.6142 54.5595 40.7093 55.2839 39.9919 56.1798C40.2792 56.4951 40.5835 56.7942 40.9033 57.0758Z" fill="black"/>
<path d="M45.679 60.9913C43.654 60.8121 41.7484 59.947 40.2714 58.5365C38.3903 56.9294 37.0663 54.7578 36.4922 52.3379C36.451 52.1225 36.458 51.9004 36.5126 51.6881C36.5673 51.4757 36.6683 51.2784 36.8081 51.1105C36.9746 50.9073 37.1849 50.7453 37.4229 50.6369C37.6609 50.5284 37.9203 50.4762 38.1813 50.4845H53.1767C53.4373 50.4789 53.6958 50.5323 53.9334 50.6406C54.171 50.7489 54.3816 50.9094 54.5499 51.1105C54.6884 51.279 54.7876 51.4768 54.8402 51.6892C54.8928 51.9017 54.8974 52.1234 54.8537 52.3379C54.2795 54.7578 52.9555 56.9294 51.0744 58.5365C49.6006 59.9445 47.6997 60.8094 45.679 60.9913ZM38.1813 51.9083C37.9868 51.9083 37.9382 51.9942 37.9261 52.0188C38.4397 54.1173 39.6017 55.996 41.2435 57.3827C42.4441 58.5774 44.005 59.3333 45.679 59.5307C47.3486 59.3355 48.9078 58.5891 50.1144 57.4072C51.7511 56.0182 52.9086 54.1399 53.4198 52.0433C53.3933 52.0041 53.3565 51.973 53.3136 51.9535C53.2708 51.934 53.2234 51.9269 53.1767 51.9329L38.1813 51.9083Z" fill="black"/>
<path d="M64.0648 52.9271C67.9909 52.9271 71.1737 51.0367 71.1737 48.7047C71.1737 46.3727 67.9909 44.4823 64.0648 44.4823C60.1387 44.4823 56.956 46.3727 56.956 48.7047C56.956 51.0367 60.1387 52.9271 64.0648 52.9271Z" fill="#FEBBD0"/>
<path d="M27.281 52.9271C31.2071 52.9271 34.3899 51.0367 34.3899 48.7047C34.3899 46.3727 31.2071 44.4823 27.281 44.4823C23.3549 44.4823 20.1722 46.3727 20.1722 48.7047C20.1722 51.0367 23.3549 52.9271 27.281 52.9271Z" fill="#FEBBD0"/>
<path fill-rule="evenodd" clip-rule="evenodd" d="M30.6228 47.0108C31.9476 47.0133 33.2433 46.6187 34.346 45.877C35.4487 45.1353 36.3088 44.0799 36.8175 42.8443C37.3261 41.6087 37.4604 40.2485 37.2035 38.9358C36.9465 37.623 36.3097 36.4168 35.3738 35.4697C34.4379 34.5226 33.2448 33.8773 31.9457 33.6153C30.6465 33.3534 29.2996 33.4866 28.0754 33.9981C26.8512 34.5097 25.8048 35.3765 25.0685 36.489C24.3322 37.6014 23.9392 38.9095 23.9392 40.2477C23.9392 42.0392 24.643 43.7576 25.8961 45.0256C27.1491 46.2936 28.8491 47.0076 30.6228 47.0108ZM60.723 47.0108C62.0494 47.0206 63.3486 46.6322 64.4561 45.895C65.5636 45.1578 66.4294 44.1049 66.9436 42.87C67.4578 41.6351 67.5974 40.2737 67.3446 38.9586C67.0917 37.6434 66.4579 36.4338 65.5234 35.483C64.589 34.5322 63.396 33.8832 62.0959 33.6182C60.7957 33.3533 59.447 33.4843 58.2207 33.9947C56.9944 34.5051 55.9458 35.3719 55.2078 36.4852C54.4699 37.5984 54.076 38.9079 54.076 40.2477C54.0727 42.0339 54.7704 43.7486 56.0163 45.0162C57.2622 46.2839 58.9547 47.0011 60.723 47.0108Z" fill="black"/>
<path fill-rule="evenodd" clip-rule="evenodd" d="M28.557 40.6773C29.055 40.6797 29.5425 40.5327 29.9578 40.255C30.373 39.9773 30.6973 39.5814 30.8896 39.1173C31.0818 38.6533 31.1334 38.142 31.0377 37.6483C30.942 37.1547 30.7034 36.7008 30.3521 36.3442C30.0008 35.9877 29.5526 35.7445 29.0643 35.6454C28.5761 35.5464 28.0697 35.596 27.6093 35.7879C27.149 35.9799 26.7554 36.3055 26.4785 36.7236C26.2015 37.1417 26.0537 37.6334 26.0537 38.1365C26.0537 38.8082 26.317 39.4526 26.7861 39.9287C27.2552 40.4049 27.8919 40.674 28.557 40.6773ZM58.6572 40.6773C59.1552 40.6797 59.6428 40.5327 60.058 40.255C60.4733 39.9773 60.7976 39.5814 60.9898 39.1173C61.1821 38.6533 61.2336 38.142 61.138 37.6483C61.0423 37.1547 60.8037 36.7008 60.4524 36.3442C60.1011 35.9877 59.6529 35.7445 59.1646 35.6454C58.6763 35.5464 58.1699 35.596 57.7096 35.7879C57.2492 35.9799 56.8557 36.3055 56.5787 36.7236C56.3018 37.1417 56.1539 37.6334 56.1539 38.1365C56.1539 38.804 56.4139 39.4447 56.8778 39.9202C57.3416 40.3956 57.9721 40.6676 58.6329 40.6773H58.6572Z" fill="white"/>
<path fill-rule="evenodd" clip-rule="evenodd" d="M81.8477 20.8708C81.8421 20.8653 81.8364 20.8597 81.8308 20.8541ZM81.8577 20.8806L81.8477 20.8708C81.8494 20.8724 81.8461 20.8692 81.8477 20.8708M81.8577 20.8806C81.8602 20.8831 81.8628 20.8856 81.8653 20.8882ZM81.8653 20.8882L81.8739 20.8968ZM81.9057 20.9297C81.895 20.9187 81.8844 20.9078 81.8739 20.8968L81.9157 20.9398C81.9123 20.9364 81.909 20.933 81.9057 20.9297ZM81.965 20.9905C81.9452 20.9702 81.9254 20.95 81.9057 20.9297C81.895 20.9187 81.8844 20.9078 81.8739 20.8968M81.965 20.9905C81.9719 20.9975 81.9832 21.01 81.9897 21.0172C81.9968 21.0251 81.9993 21.0278 82.0067 21.0353C81.9477 20.9757 81.8892 20.9149 81.8308 20.8541M82.0535 21.0821C82.0385 21.0659 82.0217 21.0514 82.0067 21.0353C84.7312 23.9689 86.898 27.2158 88.436 30.6676C86.9495 27.3315 84.8818 24.1811 82.285 21.3253C82.273 21.3126 82.261 21.2999 82.249 21.2872C82.2406 21.2783 82.2322 21.2694 82.2238 21.2605C82.2036 21.2396 82.1792 21.2143 82.1595 21.1929L82.1057 21.1365L82.0535 21.0821ZM82.0667 21.0951C82.0712 21.0994 82.0758 21.1038 82.0802 21.1084C82.0856 21.114 82.0877 21.1155 82.0934 21.1209M82.2036 21.2392C82.2021 21.2377 82.205 21.2407 82.2036 21.2392ZM82.0934 21.1209C82.0999 21.1268 82.1117 21.1383 82.1176 21.1447ZM82.0934 21.1209C82.0999 21.1268 82.1117 21.1383 82.1176 21.1447ZM56.1082 7.2627C56.5459 7.53378 56.9984 7.8154 57.466 8.10632C57.8103 8.32059 58.163 8.54004 58.5235 8.7639C57.672 8.23166 56.8698 7.73033 56.1082 7.2627Z" fill="black"/>
<path d="M81.8308 20.8541L81.776 20.7971L81.8089 20.8312L81.8308 20.8541C81.8892 20.9149 81.9477 20.9757 82.0067 21.0353C84.7312 23.9689 86.898 27.2158 88.436 30.6676C90.1377 34.5872 93.4328 40.1214 93.5 44.4823C93.5 40.1424 90.2023 34.6317 88.436 30.6676C86.9493 27.2433 84.8768 24.077 82.285 21.3253C82.2588 21.2975 82.2299 21.2669 82.2036 21.2392C82.188 21.2228 82.1751 21.2093 82.1595 21.1929C82.1416 21.1741 82.1237 21.1553 82.1057 21.1365C82.0883 21.1184 82.0709 21.1002 82.0535 21.0821L82.0802 21.1084L82.1176 21.1447L82.1347 21.161C82.238 21.2592 82.3382 21.3635 82.4385 21.4679C82.5387 21.5722 82.639 21.6765 82.7423 21.7747C82.8456 21.8729 82.9458 21.9773 83.0461 22.0816C83.1463 22.1859 83.2466 22.2903 83.3499 22.3884C83.4532 22.4866 83.5534 22.591 83.6537 22.6953C83.7539 22.7996 83.8542 22.904 83.9575 23.0022C84.0608 23.1004 84.161 23.2047 84.2613 23.309C84.3615 23.4134 84.4618 23.5177 84.5651 23.6159C84.6684 23.7141 84.7686 23.8184 84.8689 23.9227C84.9691 24.0271 85.0694 24.1314 85.1727 24.2296C85.3792 24.426 85.5858 24.6347 85.7803 24.8433C92.3058 31.2996 96 39.5112 96 48.1769C96 68.4541 75.5605 85 50.4304 85C36.0182 85 23.1494 79.5379 14.7889 71.0563L10.7403 66.967C4.04171 60.5441 0 52.25 0 43.2058C0 30.9314 7.50987 19.4794 20.0871 12.618C23.4037 10.8314 26.2899 9.0332 28.8788 7.42029C29.1348 7.26082 29.3881 7.10298 29.6385 6.94729C31.1696 5.98989 32.6157 5.09386 34.0132 4.25921C38.2785 1.70614 41.9241 0 45.5696 0C49.2152 0 52.399 1.47292 56.3848 3.85415C57.6 4.55379 58.8152 5.3148 60.1154 6.14946L60.1781 6.18858C63.1883 8.06912 66.5871 10.1924 71.0522 12.618C75.2988 14.9348 78.9678 17.7735 81.965 20.9905L81.8739 20.8968L81.8653 20.8882L81.8308 20.8541ZM63.6756 73.8022C78.1106 68.3969 88.1013 56.7287 88.1013 43.2058C88.1013 31.631 80.8101 21.4065 69.6061 15.343C66.0472 13.3963 63.0843 11.6056 60.5398 10.0286C60.2955 9.87572 60.0556 9.72518 59.8199 9.57719L59.5632 9.41594C59.2473 9.21759 58.9344 9.02107 58.6327 8.83222L58.5235 8.7639C57.672 8.23166 56.8698 7.73033 56.1082 7.2627C55.6841 7.00001 55.274 6.7472 54.878 6.50541C51.196 4.29603 48.5104 3.06859 45.5696 3.06859C42.6289 3.06859 39.4937 4.60289 35.5443 6.91047C34.5428 7.50131 33.5215 8.13407 32.4542 8.79728L32.4442 8.80348L32.2406 8.93C31.9119 9.13428 31.5793 9.34095 31.2425 9.54946C28.4111 11.317 25.1666 13.3177 21.521 15.3184C18.9024 16.7493 16.5222 18.3902 14.4067 20.202C7.33748 26.2252 3.03798 34.3174 3.03798 43.2058V44.6664L3.07094 44.5491C3.70763 57.4982 13.509 68.5769 27.464 73.8023C28.2455 74.095 29.0394 74.3717 29.8461 74.6269C34.6228 76.1894 39.6407 77.005 44.7258 77.0151C45.0064 77.0195 45.2877 77.0217 45.5696 77.0217C52.041 77.0217 58.1793 75.8666 63.6756 73.8022Z" fill="black"/>
</svg>
