<svg width="66" height="85" viewBox="0 0 66 85" fill="none" xmlns="http://www.w3.org/2000/svg">
<path fill-rule="evenodd" clip-rule="evenodd" d="M35.178 0.178027C35.0053 0.0352311 34.8059 -0.0216622 34.5801 0.00734751C27.3628 8.93436 21.156 18.5493 15.9599 28.8522C15.2792 28.2575 14.6244 27.6317 13.9954 26.9747C12.637 25.1053 11.2135 23.2846 9.7247 21.513C3.49726 29.2879 1.08607 40.1707 0.158359 49.8458C-0.255932 54.0255 0.14266 58.1218 1.35415 62.1347C6.00519 74.4608 14.8029 81.9422 27.747 84.579C38.5761 86.1292 48.1425 83.3983 56.446 76.3864C65.9362 67.216 68.3563 56.4347 63.7062 44.0427C60.7945 37.0849 57.2641 30.4854 53.1149 24.2438C47.5106 15.9477 41.5316 7.92578 35.178 0.178027ZM50.3817 37.0448C45.3183 28.8339 39.6525 21.0965 33.3843 13.8324C29.5776 18.8601 25.734 23.8666 21.8535 28.8522L16.7286 36.3621C14.9209 39.2915 13.3835 42.3637 12.1163 45.5788C11.2276 48.1803 10.9429 50.8543 11.2622 53.6007C12.5777 62.3113 17.4463 67.9723 25.8679 70.5833C33.6775 72.4504 40.8522 71.0849 47.3922 66.487C54.1542 60.9983 56.4604 54.0288 54.3107 45.5788C53.2787 42.6064 51.9692 39.7617 50.3817 37.0448Z" fill="#FF5B11"/>
<path d="M33.3843 13.8324C39.6525 21.0965 45.3183 28.8339 50.3817 37.0448C51.9692 39.7617 53.2787 42.6064 54.3107 45.5788C56.4604 54.0288 54.1542 60.9983 47.3922 66.487C40.8522 71.0849 33.6775 72.4504 25.8679 70.5833C17.4463 67.9723 12.5777 62.3113 11.2622 53.6007C10.9429 50.8543 11.2276 48.1803 12.1163 45.5788C13.3835 42.3637 14.9209 39.2915 16.7286 36.3621L21.8535 28.8522C25.734 23.8666 29.5776 18.8601 33.3843 13.8324Z" fill="#FF9758"/>
</svg>
