<svg width="95" height="86" viewBox="0 0 95 86" fill="none" xmlns="http://www.w3.org/2000/svg">
<path fill-rule="evenodd" clip-rule="evenodd" d="M47.5 53.1949C53.317 53.1949 58.0318 48.4652 58.0318 42.6298C58.0313 36.7949 53.3167 32.0647 47.5 32.0647C41.6833 32.0647 36.9687 36.7949 36.9682 42.6298C36.9682 48.4652 41.683 53.1949 47.5 53.1949Z" fill="#61DAFB"/>
<path fill-rule="evenodd" clip-rule="evenodd" d="M90.7486 50.9411C93.3025 48.628 95 45.8227 95 42.6298C94.999 33.1971 82.5492 28.7643 75.09 26.6467C76.985 19.1307 79.4184 6.09603 71.25 1.36493C63.0935 -3.35911 53.0344 5.26955 47.5 10.6675C41.9657 5.26955 31.9065 -3.35912 23.75 1.36493C15.5853 6.09388 18.0114 19.1319 19.906 26.6467C12.4479 28.7644 0.0010256 33.1995 0 42.6298C0 52.0663 12.4471 56.4908 19.906 58.6089C18.0105 66.1246 15.5844 79.1695 23.75 83.8988C31.9106 88.6241 41.9644 79.9915 47.5 74.5921C53.0356 79.9915 63.0894 88.6241 71.25 83.8988C79.4193 79.1673 76.9858 66.1257 75.09 58.6089C80.6453 57.0317 86.4149 54.8655 90.7486 50.9411ZM69.1848 4.95406C63.0709 1.41306 54.3902 9.72202 50.376 13.6376C53.0959 16.5888 55.8031 19.9536 58.415 23.6564C62.9176 24.0738 67.1766 24.744 71.0846 25.631C72.4604 20.1746 75.312 8.50372 69.1848 4.95406ZM38.86 27.6178C44.6057 27.1862 50.3903 27.1864 56.136 27.6178C59.3835 32.3964 62.2712 37.4217 64.772 42.6298C62.271 47.8385 59.3835 52.8587 56.136 57.6378C50.3882 58.0694 44.6078 58.0696 38.86 57.6378C35.6136 52.8602 32.7241 47.8369 30.224 42.6298C32.7239 37.4233 35.6136 32.3949 38.86 27.6178ZM64.3122 32.8943C63.3768 31.269 62.412 29.6884 61.4322 28.1519C64.4325 28.5294 67.2848 29.0236 69.9512 29.6207C69.1333 32.2373 68.1372 34.9649 66.9623 37.762C66.1266 36.1443 65.2465 34.5176 64.3122 32.8943ZM87.9815 37.3938C97.4535 45.9716 80.6048 52.7381 73.9646 54.6233C72.7765 50.7846 71.225 46.7503 69.334 42.6298C71.2256 38.508 72.7764 34.4722 73.9646 30.6323C78.8976 32.0327 84.1313 33.9072 87.9815 37.3938ZM66.9623 47.4936C65.2642 50.781 63.4215 53.9839 61.4322 57.1037C64.4327 56.7262 67.2847 56.2321 69.9512 55.6349C69.1332 53.0184 68.1374 50.2906 66.9623 47.4936ZM41.9699 23.2841C43.7961 20.8663 45.6511 18.6375 47.5 16.6197C49.3484 18.6369 51.2003 20.867 53.0261 23.2841C49.3421 23.116 45.6538 23.1159 41.9699 23.2841ZM31.781 4.84481C19.6163 0.897003 22.232 18.9702 23.9113 25.631C27.8193 24.7438 32.0783 24.0739 36.581 23.6564C39.1927 19.9537 41.9002 16.5888 44.62 13.6376C40.9496 10.0577 36.7212 6.44837 31.781 4.84481ZM33.5638 28.1519C30.5635 28.5295 27.7111 29.0234 25.0448 29.6207C25.8625 32.2372 26.8588 34.965 28.0337 37.762C29.7307 34.4768 31.5757 31.2696 33.5638 28.1519ZM7.01851 47.8658C-2.44856 39.291 14.389 32.5184 21.0313 30.6323C22.2194 34.472 23.7705 38.5081 25.6619 42.6298C23.7711 46.7502 22.2194 50.7847 21.0313 54.6233C16.0987 53.2226 10.8692 51.3529 7.01851 47.8658ZM25.0448 55.6349C25.8627 53.0185 26.8587 50.2905 28.0337 47.4936C29.7312 50.78 31.5751 53.9848 33.5638 57.1037C30.5633 56.7261 27.7112 56.2322 25.0448 55.6349ZM53.0261 61.9755C49.3421 62.1437 45.6538 62.1438 41.9699 61.9755C43.7961 64.3934 45.6512 66.6221 47.5 68.6399C49.3484 66.6226 51.2004 64.3927 53.0261 61.9755ZM58.419 61.5992C62.9201 61.1818 67.1778 60.5154 71.0846 59.6286C72.4603 65.0839 75.312 76.7609 69.1848 80.3096C63.0718 83.8492 54.3922 75.5354 50.38 71.6221C53.1004 68.6701 55.8068 65.303 58.419 61.5992ZM22.8505 64.7149C23.1092 63.0956 23.4658 61.3958 23.9113 59.6286C27.818 60.5156 32.0758 61.1816 36.5769 61.5992C39.189 65.3029 41.8957 68.67 44.616 71.6221C40.6035 75.5354 31.9298 83.8501 25.8152 80.3096C21.0525 77.5512 22.1514 69.0926 22.8505 64.7149Z" fill="#61DAFB"/>
</svg>
