<svg width="85" height="85" viewBox="0 0 85 85" fill="none" xmlns="http://www.w3.org/2000/svg">
<path d="M84.7187 12.5807L44.79 83.8905C43.9656 85.3628 41.8476 85.3715 41.0108 83.9064L0.290339 12.5876C-0.621269 10.991 0.745727 9.05701 2.55728 9.3804L42.5288 16.5161C42.7838 16.5616 43.0448 16.5612 43.2998 16.5148L82.4354 9.39063C84.2409 9.06198 85.6143 10.9809 84.7187 12.5807Z" fill="url(#paint0_linear_483_925)"/>
<path d="M61.5694 0.0209261L32.0209 5.80356C31.5352 5.8986 31.1756 6.30965 31.1463 6.80296L29.3287 37.4629C29.286 38.1851 29.95 38.7455 30.6557 38.583L38.8824 36.6868C39.6521 36.5095 40.3476 37.1866 40.1894 37.9597L37.7453 49.9132C37.5808 50.7177 38.3371 51.4056 39.1237 51.167L44.2049 49.6251C44.9927 49.3863 45.7496 50.0762 45.5829 50.8813L41.6987 69.6576C41.4557 70.8321 43.0199 71.4726 43.6722 70.4656L44.1079 69.7931L68.1857 21.8022C68.5889 20.9986 67.8936 20.0824 67.0099 20.2527L58.5419 21.8849C57.7461 22.0382 57.0691 21.298 57.2937 20.5205L62.8206 1.38472C63.0454 0.605834 62.366 -0.134953 61.5694 0.0209261Z" fill="url(#paint1_linear_483_925)"/>
<defs>
<linearGradient id="paint0_linear_483_925" x1="-0.703882" y1="-2.82311" x2="56.6431" y2="66.5838" gradientUnits="userSpaceOnUse">
<stop stop-color="#41D1FF"/>
<stop offset="1" stop-color="#BD34FE"/>
</linearGradient>
<linearGradient id="paint1_linear_483_925" x1="40.2343" y1="1.5909" x2="49.2016" y2="63.1835" gradientUnits="userSpaceOnUse">
<stop stop-color="#FFEA83"/>
<stop offset="0.0833333" stop-color="#FFDD35"/>
<stop offset="1" stop-color="#FFA800"/>
</linearGradient>
</defs>
</svg>
