<svg width="71" height="25" viewBox="0 0 71 25" fill="none" xmlns="http://www.w3.org/2000/svg">
<path d="M40.4512 24.9961H44.3625L51.2036 0.00365555H49.823C49.36 1.72286 43.5594 22.998 43.5594 22.998L37.8584 0.00365555H33.9469L40.4512 24.9961Z" fill="black"/>
<path d="M35.2758 10.6389L34.5994 8.1564L30.4783 23.0009L24.6858 0.00365555H20.7168C22.0383 4.98341 27.5044 24.9986 27.5044 24.9986H31.4159L35.2758 10.6389Z" fill="black"/>
<path d="M51.634 4.84753C51.336 5.60688 51.2036 6.2236 51.2036 7.49062C51.2036 9.50656 52.0085 11.3477 53.7346 12.5011C55.0824 13.1509 56.8823 13.6355 59.3067 13.9428C62.8821 14.3959 65.9003 14.9698 67.0254 16.0557C69.4499 18.3956 67.662 22.4436 64.9381 23.5236C62.974 24.3022 59.2731 24.2857 57.2814 23.5071C54.6365 22.4733 53.6899 19.624 53.6899 17.0111H51.2036V22.1475C55.5753 25.0562 67.7195 27.4751 70.5696 20.2124C70.8676 19.453 71 18.8363 71 17.5693C71 15.5533 70.0713 13.6546 68.3452 12.5011C66.9974 11.8513 65.2062 11.4244 62.7818 11.1171C59.2064 10.664 56.3032 10.0901 55.1782 9.00422C52.7537 6.66431 54.5415 2.61623 57.2654 1.53626C59.2296 0.757723 62.9305 0.774186 64.9222 1.55273C67.5671 2.58659 68.5137 5.4359 68.5137 8.04873H71V2.9124C66.5045 -0.169113 54.4841 -2.4152 51.634 4.84753Z" fill="black"/>
<path d="M0.430406 4.85118C0.132414 5.61054 0 6.22726 0 7.49428C0 9.51021 0.804934 11.3513 2.53098 12.5048C3.87877 13.1546 5.67875 13.6392 8.10309 13.9465C11.6786 14.3995 14.6967 14.9734 15.8218 16.0593C18.2463 18.3992 16.4585 22.4473 13.7346 23.5273C11.7704 24.3058 8.06955 24.2893 6.0778 23.5108C3.4329 22.4769 2.48627 19.6276 2.48627 17.0148H0V22.1511C4.37169 25.0598 16.5159 27.4787 19.366 20.216C19.664 19.4567 19.7964 18.8399 19.7964 17.5729C19.7964 15.557 18.8677 13.6582 17.1416 12.5048C15.7939 11.855 14.0026 11.428 11.5783 11.1207C8.0028 10.6676 5.09966 10.0938 3.97463 9.00787C1.5501 6.66796 3.33797 2.61988 6.06186 1.53992C8.02604 0.761379 11.7269 0.777842 13.7186 1.55638C16.3635 2.59025 17.3101 5.43955 17.3101 8.05238H19.7964V2.91605C15.3009 -0.165457 3.28049 -2.41154 0.430406 4.85118Z" fill="black"/>
</svg>
