<svg width="18" height="20" viewBox="0 0 18 20" fill="none" xmlns="http://www.w3.org/2000/svg">
<path d="M7.15864 0.000146822C7.1473 0.000343306 7.13593 0.000592848 7.12455 0.000895417C6.93289 0.00459608 6.73588 0.023396 6.54012 0.0566658C6.09029 0.133066 5.66661 0.282468 5.34055 0.479666C5.0145 0.676864 4.80603 0.909786 4.75032 1.13914C4.72998 1.18555 4.72215 1.23809 4.73086 1.29222L4.87076 2.16677C4.8944 2.31407 5.03001 2.41373 5.17465 2.38966L6.01164 2.24986L6.24642 3.71299C5.15013 4.01418 4.14286 4.51943 3.272 5.18398L2.78559 4.58286L3.19659 4.23738C3.27084 4.17509 3.28186 4.0641 3.22068 3.98848L2.68442 3.32522C2.64618 3.27796 2.58903 3.25636 2.53359 3.26178C2.50032 3.26505 2.46749 3.2775 2.43964 3.30089L0.71655 4.7468C0.642297 4.8091 0.631316 4.92009 0.692461 4.99571L1.22946 5.65897C1.29063 5.73459 1.39924 5.74484 1.47349 5.68255L1.88541 5.33801L2.38831 5.95953C0.909029 7.45041 0 9.4713 0 11.6968C0 16.2799 3.85641 20 8.60823 20C11.8407 20 14.6574 18.2789 16.1291 15.7354C6.73295 18.9665 2.2875 7.60631 7.96469 3.44612L8.00194 3.43994L7.99879 3.42029C8.00077 3.41866 8.00283 3.41705 8.0049 3.41561C8.00251 3.41561 8.00035 3.41593 7.99805 3.41636L7.76401 1.95866L8.56617 1.82522C8.71081 1.80113 8.80808 1.66335 8.78445 1.51605L8.64919 0.673696H8.65011C8.64957 0.671884 8.64901 0.670075 8.64844 0.668268L8.64381 0.641506C8.63736 0.601549 8.62257 0.565471 8.60175 0.534083C8.51892 0.370238 8.34029 0.233643 8.08563 0.139409C7.83097 0.0451758 7.51021 -0.00302258 7.15883 0.000146822H7.15864ZM6.70651 0.19553C6.71304 0.195919 6.71757 0.197263 6.72115 0.198899C6.1971 0.34314 5.2505 0.900708 5.08978 1.19977C4.95926 1.44264 4.96007 1.79228 4.96007 1.79228C4.96007 1.79228 4.90681 1.48305 4.92042 1.2052C4.94334 0.737393 6.50465 0.180778 6.70651 0.195717V0.19553ZM8.85931 3.10214C8.7746 3.10214 8.69336 3.1364 8.63345 3.1974C8.57354 3.2584 8.53988 3.34113 8.53986 3.4274C8.53984 3.47014 8.54809 3.51246 8.56414 3.55194C8.58019 3.59143 8.60372 3.62731 8.63338 3.65753C8.66305 3.68775 8.69827 3.71173 8.73704 3.72808C8.7758 3.74444 8.81735 3.75286 8.85931 3.75286C8.90127 3.75286 8.94283 3.74444 8.98159 3.72808C9.02036 3.71173 9.05558 3.68775 9.08525 3.65753C9.11491 3.62731 9.13844 3.59143 9.15449 3.55194C9.17053 3.51246 9.17878 3.47014 9.17877 3.4274C9.17875 3.34113 9.14509 3.2584 9.08518 3.1974C9.02527 3.1364 8.94403 3.10214 8.85931 3.10214ZM10.4394 3.29715C10.3546 3.29715 10.2734 3.33141 10.2135 3.39241C10.1536 3.45341 10.1199 3.53614 10.1199 3.62241C10.1199 3.70869 10.1536 3.79142 10.2135 3.85242C10.2734 3.91342 10.3546 3.94768 10.4394 3.94768C10.5241 3.94768 10.6053 3.91342 10.6652 3.85242C10.7251 3.79142 10.7588 3.70869 10.7588 3.62241C10.7588 3.53614 10.7251 3.45341 10.6652 3.39241C10.6053 3.33141 10.5241 3.29715 10.4394 3.29715ZM11.9645 3.69185C11.9226 3.69184 11.881 3.70026 11.8423 3.71662C11.8035 3.73297 11.7683 3.75695 11.7386 3.78717C11.709 3.81739 11.6854 3.85327 11.6694 3.89276C11.6533 3.93225 11.6451 3.97456 11.6451 4.0173C11.6451 4.10357 11.6788 4.18631 11.7387 4.2473C11.7986 4.3083 11.8798 4.34257 11.9645 4.34256C12.0493 4.34257 12.1305 4.3083 12.1904 4.2473C12.2503 4.18631 12.284 4.10357 12.284 4.0173C12.284 3.97456 12.2758 3.93225 12.2597 3.89276C12.2437 3.85327 12.2201 3.81739 12.1905 3.78717C12.1608 3.75695 12.1256 3.73297 12.0868 3.71662C12.0481 3.70026 12.0065 3.69184 11.9645 3.69185ZM13.6623 3.81667C13.5973 3.81954 13.5343 3.85126 13.492 3.90856L12.4854 5.27157C12.4102 5.37342 12.4301 5.51705 12.5301 5.59365L12.7471 5.75984C12.8471 5.83644 12.9882 5.81622 13.0634 5.71436L14.0699 4.35136C14.1451 4.24951 14.1253 4.10569 14.0253 4.02909L13.8083 3.8629C13.7645 3.82936 13.7128 3.81437 13.6623 3.81667ZM4.11845 5.11025C4.44969 5.11957 4.70609 5.5278 4.69269 6.02391C4.67932 6.52 4.40059 6.91713 4.06934 6.90781C3.73811 6.89861 3.48171 6.48632 3.4951 5.99022C3.50847 5.49413 3.78721 5.10104 4.11845 5.11025ZM8.74035 5.23115L8.70607 5.26652L8.50947 5.46658V6.00108L8.64937 6.14331L8.74035 6.04974V5.23115ZM14.5278 5.46209C14.3514 5.4621 14.2083 5.60769 14.2083 5.78735C14.2083 5.96701 14.3514 6.1126 14.5278 6.11262C14.7042 6.11261 14.8472 5.96701 14.8472 5.78735C14.8472 5.60769 14.7042 5.4621 14.5278 5.46209ZM8.64937 6.15735L8.63473 6.17157L8.50947 6.29939V6.83408L8.74035 7.06876V6.25317L8.64937 6.15735ZM15.5786 6.60987C15.4939 6.60987 15.4127 6.64413 15.3527 6.70513C15.2928 6.76613 15.2592 6.84886 15.2592 6.93514C15.2591 6.97787 15.2674 7.02019 15.2834 7.05968C15.2995 7.09916 15.323 7.13504 15.3527 7.16526C15.3823 7.19549 15.4176 7.21946 15.4563 7.23582C15.4951 7.25217 15.5367 7.26059 15.5786 7.26059C15.6206 7.26059 15.6621 7.25217 15.7009 7.23582C15.7397 7.21946 15.7749 7.19549 15.8045 7.16526C15.8342 7.13504 15.8577 7.09916 15.8738 7.05968C15.8898 7.02019 15.8981 6.97787 15.8981 6.93514C15.8981 6.84886 15.8644 6.76613 15.8045 6.70513C15.7446 6.64413 15.6633 6.60987 15.5786 6.60987ZM10.6639 7.25947L10.6973 7.29484L10.8878 7.49097H11.5111L11.7357 7.25947H10.6639ZM11.7426 7.26564L11.7077 7.30101L11.5172 7.49808V8.02322L11.6547 8.16283L11.7426 8.07113V7.26564ZM10.6569 7.26658V7.31598V8.07113L10.7462 8.16302L10.8839 8.02322V7.49808L10.6569 7.26658ZM3.39949 7.6856C3.79258 7.69656 4.09857 8.18331 4.08268 8.772C4.06681 9.3607 3.73493 9.82859 3.34186 9.8176C2.94881 9.80664 2.64369 9.32065 2.65959 8.73195C2.67547 8.14327 3.00644 7.67461 3.39949 7.6856ZM16.4097 8.12222C16.325 8.12222 16.2437 8.15648 16.1838 8.21748C16.1239 8.27848 16.0902 8.36121 16.0902 8.44749C16.0902 8.53376 16.1239 8.61649 16.1838 8.67749C16.2437 8.73849 16.325 8.77275 16.4097 8.77275C16.4944 8.77275 16.5756 8.73849 16.6355 8.67749C16.6955 8.61649 16.7291 8.53376 16.7291 8.44749C16.7291 8.36121 16.6955 8.27848 16.6355 8.21748C16.5756 8.15648 16.4944 8.12222 16.4097 8.12222ZM10.7462 8.17556L10.7323 8.19128L10.6569 8.27044V9.07275L10.8839 8.84106V8.31592L10.7462 8.17556ZM11.6557 8.17556L11.6408 8.19034L11.5172 8.31592V8.84106L11.7426 9.0735V8.27044L11.6557 8.17556ZM10.8878 8.84817L10.8822 8.85454L10.6632 9.07968H11.7357L11.5109 8.84817H10.8878ZM17.7277 9.53463C17.7127 9.53423 17.6975 9.53589 17.6821 9.53875L16.0363 9.85466C15.9133 9.87826 15.833 9.99798 15.8562 10.1232L15.9064 10.395C15.9296 10.5202 16.0473 10.602 16.1703 10.5784L17.8159 10.2626C17.9389 10.239 18.0192 10.1193 17.996 9.99409L17.9458 9.72234C17.9255 9.61276 17.8329 9.53639 17.7277 9.53482V9.53463ZM0.932608 9.77287C1.13277 11.5127 1.82308 13.1917 2.89974 14.5579C2.67281 14.7261 2.50247 14.9615 2.44891 15.2494C2.37481 15.6478 2.54459 16.0318 2.82358 16.3154C3.10259 16.599 3.49494 16.8033 3.9489 16.8909C4.40288 16.9784 4.84185 16.9347 5.20337 16.7747C5.24433 16.7566 5.28544 16.7373 5.32456 16.7157C5.73031 16.967 6.15719 17.1867 6.59608 17.3713C6.58127 17.3047 6.57534 17.2408 6.58755 17.175C6.6751 16.7044 7.45821 16.4565 8.33455 16.6255C9.21084 16.7946 9.85074 17.3167 9.7632 17.7873C9.74414 17.8899 9.69036 17.9813 9.61163 18.0604C10.7749 18.116 11.9477 17.9458 13.0491 17.5603C11.3514 19.0306 8.98957 19.6713 6.79898 19.2544C4.86557 18.8814 3.0977 17.6975 1.98955 16.0414C0.881418 14.3854 0.446713 12.2772 0.812905 10.3081C0.84649 10.1283 0.886492 9.94974 0.932608 9.77287ZM14.0936 10.185L14.0586 10.2203L13.7914 10.4927V11.221L13.9756 11.4087L14.0936 11.2886V10.185ZM17.0905 11.3051C17.0485 11.3051 17.007 11.3135 16.9682 11.3298C16.9294 11.3462 16.8942 11.3702 16.8645 11.4004C16.8349 11.4306 16.8113 11.4665 16.7953 11.506C16.7792 11.5455 16.771 11.5878 16.771 11.6305C16.771 11.7168 16.8047 11.7995 16.8646 11.8605C16.9245 11.9215 17.0058 11.9558 17.0905 11.9558C17.1752 11.9558 17.2564 11.9215 17.3163 11.8605C17.3762 11.7995 17.4099 11.7168 17.4099 11.6305C17.4099 11.5878 17.4017 11.5455 17.3856 11.506C17.3696 11.4665 17.3461 11.4306 17.3164 11.4004C17.2867 11.3702 17.2515 11.3462 17.2127 11.3298C17.174 11.3135 17.1324 11.3051 17.0905 11.3051ZM9.34646 11.4299L9.38074 11.4653L9.68148 11.7761H10.6678L11.0027 11.4299H9.34646ZM13.9756 11.4497L13.9615 11.4645L13.7912 11.6371V12.3656L14.0936 12.6733V11.5736L13.9756 11.4497ZM11.0306 11.4574L10.9958 11.4928L10.6951 11.8036V12.6333L10.9033 12.8444L11.0306 12.7102V11.4574ZM9.31848 11.4581V11.5077V12.7102L9.45079 12.8444L9.65814 12.6333V11.8036L9.31848 11.4581ZM16.9669 12.8814C16.8822 12.8814 16.8009 12.9157 16.741 12.9767C16.6811 13.0377 16.6474 13.1204 16.6474 13.2067C16.6474 13.2494 16.6557 13.2917 16.6717 13.3312C16.6877 13.3707 16.7113 13.4066 16.7409 13.4368C16.7706 13.467 16.8058 13.491 16.8446 13.5074C16.8834 13.5237 16.9249 13.5321 16.9669 13.5321C17.0088 13.5321 17.0504 13.5237 17.0891 13.5074C17.1279 13.491 17.1631 13.467 17.1928 13.4368C17.2225 13.4066 17.246 13.3707 17.262 13.3312C17.2781 13.2917 17.2863 13.2494 17.2863 13.2067C17.2863 13.1204 17.2526 13.0377 17.1927 12.9767C17.1328 12.9157 17.0516 12.8814 16.9669 12.8814ZM10.9033 12.8994L10.8885 12.9144L10.6951 13.1112V13.9411L11.0308 14.2871V13.039L10.9033 12.8994ZM9.45079 12.9001L9.43596 12.9151L9.31848 13.0392V14.2873L9.65814 13.9411V13.1112L9.45079 12.9001ZM9.68148 13.9693L9.67611 13.9747L9.34646 14.3148H11.0027L10.6678 13.9693H9.68148ZM16.4619 14.4628C16.3772 14.4628 16.296 14.4971 16.2361 14.5581C16.1762 14.6191 16.1425 14.7018 16.1425 14.7881C16.1425 14.8744 16.1762 14.9571 16.2361 15.0181C16.296 15.0791 16.3772 15.1134 16.4619 15.1134C16.5466 15.1134 16.6279 15.0791 16.6878 15.0181C16.7477 14.9571 16.7814 14.8744 16.7814 14.7881C16.7814 14.7018 16.7477 14.6191 16.6878 14.5581C16.6279 14.4971 16.5466 14.4628 16.4619 14.4628ZM4.26372 14.6036C4.3804 14.6011 4.5014 14.6112 4.62505 14.635C5.28449 14.7622 5.75062 15.234 5.66569 15.6907C5.58074 16.1474 4.97745 16.4138 4.31801 16.2866C3.65857 16.1594 3.19242 15.6866 3.27738 15.2299C3.3464 14.8589 3.75814 14.6142 4.26372 14.6036Z" fill="#131313"/>
</svg>
